<svg width="49" height="49" viewBox="0 0 49 49" fill="none" xmlns="http://www.w3.org/2000/svg">
<path d="M19.3864 14.3918C22.259 15.0593 24.2757 15.8677 25.4367 16.817C27.1036 18.1668 27.9371 19.9171 27.9371 22.0679C27.9371 24.3374 27.0218 26.2138 25.1911 27.6971C22.9436 29.4919 19.6767 30.3893 15.3901 30.3893H0.0078125V29.5661C1.40688 29.5661 2.352 29.44 2.84316 29.1878C3.34921 28.9209 3.69898 28.5797 3.89246 28.1644C4.10084 27.749 4.20502 26.7255 4.20502 25.0939V5.51418C4.20502 3.88253 4.10084 2.85905 3.89246 2.44372C3.69898 2.01356 3.34921 1.6724 2.84316 1.42023C2.33711 1.16807 1.392 1.04199 0.0078125 1.04199V0.21875H14.5194C17.9873 0.21875 20.4432 0.530246 21.8869 1.15324C23.3306 1.7614 24.4692 2.68105 25.3027 3.9122C26.1362 5.12852 26.5529 6.42641 26.5529 7.8059C26.5529 9.25954 26.0246 10.5574 24.9678 11.6996C23.9111 12.8269 22.0506 13.7243 19.3864 14.3918ZM11.2599 13.7911C13.3734 13.7911 14.9287 13.5537 15.926 13.0791C16.938 12.6044 17.712 11.9369 18.2478 11.0766C18.7836 10.2163 19.0515 9.11863 19.0515 7.78365C19.0515 6.44866 18.7836 5.35843 18.2478 4.51294C17.7269 3.65262 16.9753 2.99996 15.9929 2.55497C15.0106 2.10997 13.4329 1.89489 11.2599 1.90973V13.7911ZM11.2599 15.5265V25.2052L11.2376 26.3176C11.2376 27.1186 11.4385 27.7268 11.8404 28.1421C12.2571 28.5426 12.8673 28.7429 13.6711 28.7429C14.8618 28.7429 15.9557 28.4833 16.9529 27.9641C17.965 27.4301 18.739 26.6662 19.2748 25.6724C19.8106 24.6637 20.0785 23.5438 20.0785 22.3127C20.0785 20.9035 19.7511 19.6427 19.0962 18.5302C18.4413 17.4029 17.5408 16.6168 16.3948 16.1718C15.2487 15.7268 13.5371 15.5117 11.2599 15.5265Z" fill="#111111"/>
<path d="M46.2217 18.0482L28.4283 46.5278H34.1883C36.912 46.5278 38.8171 46.3572 39.9036 46.016C41.6748 45.482 43.2003 44.503 44.4803 43.0791C45.7603 41.6402 46.6459 39.7194 47.1371 37.3164H48.0078L46.7799 48.2187H19.0515L36.8673 19.6946H32.3799C30.6385 19.6946 29.4924 19.7465 28.9417 19.8504C27.8999 20.0432 26.9176 20.4289 25.9948 21.0074C25.0869 21.571 24.3278 22.3275 23.7176 23.2768C23.1222 24.2262 22.6534 25.4276 22.311 26.8813H21.485L22.311 18.0482H46.2217Z" fill="#111111"/>
</svg>
